<svg xmlns="http://www.w3.org/2000/svg" viewBox="0 0 367.7 49.89"><defs><style>.cls-1{fill:#ed1c24;}.cls-2{fill:#fff;}</style></defs><g id="Capa_2" data-name="Capa 2"><g id="Capa_1-2" data-name="Capa 1"><path class="cls-1" d="M16.45,0V4a6.86,6.86,0,0,0-3.32,1.85A4.39,4.39,0,0,0,12,9,5.08,5.08,0,0,0,12.94,12,9.21,9.21,0,0,0,16,14.55c1,.54,3.21,1.57,6.68,3.1a35.94,35.94,0,0,1,4.91,2.48,17.11,17.11,0,0,1,3.28,2.76,14.5,14.5,0,0,1,4.15,10.37,16,16,0,0,1-8.44,14.2A21,21,0,0,1,22,49.24a19,19,0,0,1-4.69.65v-4a9.44,9.44,0,0,0,4.41-2.06,4.76,4.76,0,0,0,1.35-3.57A5.29,5.29,0,0,0,21,36.11a24.67,24.67,0,0,0-5.34-2.89c-2.88-1.26-4.86-2.16-5.92-2.7a21.82,21.82,0,0,1-3.08-1.9A14.68,14.68,0,0,1,0,16.07a16.66,16.66,0,0,1,1.65-7.4A14,14,0,0,1,6.26,3.2,19.12,19.12,0,0,1,16.45,0ZM14.62,45.88v4a14.9,14.9,0,0,1-6.36-1.66c-.87-.39-1.46-.65-1.79-.77a2.77,2.77,0,0,0-1-.17,2,2,0,0,0-1.06.22,7.16,7.16,0,0,0-1.12,1.15A1.8,1.8,0,0,1,2,49.43c-1.31,0-2-1-2-3V33.61a2.57,2.57,0,0,1,.56-1.67A1.85,1.85,0,0,1,2,31.22a1.47,1.47,0,0,1,1.21.44,4,4,0,0,1,.76,1.67A23.29,23.29,0,0,0,6.28,39a17.88,17.88,0,0,0,3.56,4.46A9.72,9.72,0,0,0,14.62,45.88ZM19.23,4V.18a19.61,19.61,0,0,1,3.66.54,35.48,35.48,0,0,1,4.39,1.6,3.25,3.25,0,0,0,1.16.28,1.12,1.12,0,0,0,1-.46l.77-1A1.66,1.66,0,0,1,31.57.35,1.53,1.53,0,0,1,33,1,4.1,4.1,0,0,1,33.4,3.2V14.8a2.39,2.39,0,0,1-.58,1.67,1.94,1.94,0,0,1-1.5.65A1.93,1.93,0,0,1,29.51,16a6,6,0,0,1-.37-1.36,14.65,14.65,0,0,0-1.33-3.55A16.49,16.49,0,0,0,25.59,7.8,12.07,12.07,0,0,0,19.23,4Z"/><path class="cls-2" d="M59.77,1v48H43.21a3.34,3.34,0,0,1-2-.48,1.53,1.53,0,0,1-.69-1.35A1.85,1.85,0,0,1,42,45.21l1.35-.47a1.11,1.11,0,0,0,.4-.41,2.93,2.93,0,0,0,.43-1.79V7.35a3,3,0,0,0-.43-1.8,1.07,1.07,0,0,0-.4-.4c-.13-.06-.58-.22-1.35-.47a1.85,1.85,0,0,1-1.41-1.9,1.56,1.56,0,0,1,.69-1.36,3.42,3.42,0,0,1,2-.47H59.77Zm2.95,25.59V22.46a9,9,0,0,0,3-2.14,7.16,7.16,0,0,0,1.44-3.09,4.25,4.25,0,0,1,.74-1.85,1.67,1.67,0,0,1,1.3-.51,1.56,1.56,0,0,1,1.55.88A5.41,5.41,0,0,1,71,17.82v13.4a5,5,0,0,1-.37,2.28,1.43,1.43,0,0,1-1.36.64,1.62,1.62,0,0,1-1.26-.5A3.63,3.63,0,0,1,67.29,32a9,9,0,0,0-1.71-3.72A5.22,5.22,0,0,0,62.72,26.54ZM62.89,1H77.06V13.39A2.44,2.44,0,0,1,76.64,15a1.67,1.67,0,0,1-1.34.49,1.65,1.65,0,0,1-1.12-.32,3.1,3.1,0,0,1-.67-1.3,13.17,13.17,0,0,0-3.92-6.22,12.13,12.13,0,0,0-6.7-2.57Zm0,48v-3.8a16.1,16.1,0,0,0,3.78-1,11.56,11.56,0,0,0,3-1.94,12.13,12.13,0,0,0,2.41-2.69,17.65,17.65,0,0,0,1.71-3.67,4,4,0,0,1,.81-1.53,1.59,1.59,0,0,1,1.16-.4,1.53,1.53,0,0,1,1.37.58,3.81,3.81,0,0,1,.38,2V48.94Z"/><path class="cls-2" d="M101.14,0V3.9c-2.06.49-3.09,2.14-3.09,4.92V41.55a6.5,6.5,0,0,0,.53,2.92,3.55,3.55,0,0,0,1.93,1.44v4a10.79,10.79,0,0,1-2.05-.18A19.33,19.33,0,0,1,96,49a19.94,19.94,0,0,1-6.68-3.87,21.43,21.43,0,0,1-4.92-6.22,28.25,28.25,0,0,1-3-13.4,31.48,31.48,0,0,1,2.67-13.29,21.33,21.33,0,0,1,7.66-9.1A19.81,19.81,0,0,1,97.91.35,13.3,13.3,0,0,1,101.14,0Zm18.78,43.07a21.46,21.46,0,0,1-3.75,2.86,29.39,29.39,0,0,1-4.41,2.3,24.51,24.51,0,0,1-4.2,1.2,21.54,21.54,0,0,1-4.06.46v-4a4.73,4.73,0,0,0,1.53-.59,2.88,2.88,0,0,0,.86-1,5.7,5.7,0,0,0,.6-2.78V31.29a3,3,0,0,0-.53-2,1.15,1.15,0,0,0-.49-.44c-.17-.06-.7-.19-1.62-.4a1.93,1.93,0,0,1-1.69-2,1.57,1.57,0,0,1,.8-1.41,4.42,4.42,0,0,1,2.33-.49h14a4.17,4.17,0,0,1,2.23.44,1.69,1.69,0,0,1,.65,1.53,2.12,2.12,0,0,1-.26,1.11,3.48,3.48,0,0,1-1,.93,2.44,2.44,0,0,0-.88.91,4.84,4.84,0,0,0-.17,1.55ZM104,3.83V0a31.63,31.63,0,0,1,9.42,2.1,4.55,4.55,0,0,0,1.69.5,1.25,1.25,0,0,0,.86-.27A12.25,12.25,0,0,0,117.21.88,1.88,1.88,0,0,1,118.79,0a1.62,1.62,0,0,1,1.39.54,3.13,3.13,0,0,1,.41,1.82V16c0,1.78-.66,2.67-2,2.67a1.86,1.86,0,0,1-1.46-.52,5.49,5.49,0,0,1-.9-2.08,22.82,22.82,0,0,0-1.9-4.59,23.82,23.82,0,0,0-2.63-4.13,9.12,9.12,0,0,0-3.24-2.58A12.32,12.32,0,0,0,104,3.83Z"/><path class="cls-2" d="M130.46,34.91V7.35a3.06,3.06,0,0,0-.42-1.8,1.07,1.07,0,0,0-.4-.4c-.13-.06-.58-.22-1.35-.47a1.83,1.83,0,0,1-1.41-1.87,1.6,1.6,0,0,1,.68-1.39,3.48,3.48,0,0,1,2-.47H147l1.27.14a2,2,0,0,1,1,.63,1.64,1.64,0,0,1,.39,1.09,1.83,1.83,0,0,1-1.41,1.87c-.77.25-1.22.41-1.35.47a1.07,1.07,0,0,0-.4.4,3,3,0,0,0-.43,1.8V36.84a37.84,37.84,0,0,0,.16,4.17,6.55,6.55,0,0,0,.65,2.13,3.55,3.55,0,0,0,1,1.26,9,9,0,0,0,2.15.88v4.61h-.78a30,30,0,0,1-7.59-.81,19.57,19.57,0,0,1-6.22-2.81,11.2,11.2,0,0,1-3.8-4.19A16.87,16.87,0,0,1,130.46,34.91Zm22.82,15V45.28a9.63,9.63,0,0,0,5.87-2.88q2.67-2.77,2.67-8V11.5q0-4.82-3.69-6.72a4.78,4.78,0,0,1-1.42-1,1.79,1.79,0,0,1-.33-1.17,1.38,1.38,0,0,1,.66-1.3A4.55,4.55,0,0,1,159.22,1h8.62a14.17,14.17,0,0,1,1.45.05,1.91,1.91,0,0,1,.73.27,1.62,1.62,0,0,1,.91,1.44,1.73,1.73,0,0,1-.56,1.3,12.9,12.9,0,0,1-1.51,1,5.8,5.8,0,0,0-2.43,2.58,8.61,8.61,0,0,0-.88,4v23a16.87,16.87,0,0,1-2.6,9.71,13.32,13.32,0,0,1-5.45,4.5A15.37,15.37,0,0,1,153.28,49.89Z"/><path class="cls-2" d="M195.4,1V42.26a2.92,2.92,0,0,0,.53,2,1.32,1.32,0,0,0,.52.44l1.62.44A1.86,1.86,0,0,1,199.76,47a1.7,1.7,0,0,1-.92,1.48,4.32,4.32,0,0,1-2.21.42H178.84a3.38,3.38,0,0,1-2-.48,1.53,1.53,0,0,1-.69-1.35,1.85,1.85,0,0,1,1.41-1.9l1.35-.47a1.13,1.13,0,0,0,.41-.41,3,3,0,0,0,.42-1.79V7.35a3.06,3.06,0,0,0-.42-1.8,1.09,1.09,0,0,0-.41-.4c-.13-.06-.58-.22-1.35-.47a1.85,1.85,0,0,1-1.41-1.9,1.56,1.56,0,0,1,.69-1.36,3.47,3.47,0,0,1,2-.47H195.4Zm10.79,24.47a30.14,30.14,0,0,1,5,1.09,12.08,12.08,0,0,1,3.14,1.61,7.61,7.61,0,0,1,2.27,2.61,6.74,6.74,0,0,1,.79,3.2V41.2c0,.75.25,1.13.74,1.13a.67.67,0,0,0,.47-.16,4.37,4.37,0,0,0,.55-.62,2.37,2.37,0,0,1,1.79-1.19,1.7,1.7,0,0,1,1.2.63,1.86,1.86,0,0,1,.59,1.27,5.11,5.11,0,0,1-1,2.65,12,12,0,0,1-2.59,2.8A9.22,9.22,0,0,1,216,49.38a13.72,13.72,0,0,1-4,.51,9.67,9.67,0,0,1-7.24-2.66,10.13,10.13,0,0,1-2.6-7.4v-5.9c0-1.32,0-2.08,0-2.29a4.74,4.74,0,0,0-1-2.43,4.21,4.21,0,0,0-2.92-1.44V24a5.38,5.38,0,0,0,2.71-1,3.21,3.21,0,0,0,1-1.44,8,8,0,0,0,.27-2.39V9.88a5.32,5.32,0,0,0-.86-3.31,6,6,0,0,0-3.11-1.72V1h.91a65.65,65.65,0,0,1,6.64.28A14.72,14.72,0,0,1,213,3.9a10.75,10.75,0,0,1,4.61,9.32,11.11,11.11,0,0,1-3.1,8.12,10.61,10.61,0,0,1-3,2.18A38.38,38.38,0,0,1,206.19,25.42Z"/><path class="cls-2" d="M245,1,252,20.67,255,10V21.69L246.9,48.94H245L231.4,8.47a6.78,6.78,0,0,0-1.48-2.74,3,3,0,0,0-1.58-.67c-1.52-.33-2.29-1-2.29-2.18a1.69,1.69,0,0,1,.66-1.42A3,3,0,0,1,228.59,1ZM231.4,17.12l3.72,10.62V38.32a15.21,15.21,0,0,0,.13,2.32,5.76,5.76,0,0,0,.54,1.55,5.29,5.29,0,0,0,2,2.32l1.3.84c.89.54,1.34,1.14,1.34,1.79q0,1.8-2.64,1.8H229c-1.76,0-2.64-.59-2.64-1.76a1.42,1.42,0,0,1,.23-.86,3.1,3.1,0,0,1,.9-.69q3.9-2.1,3.9-7.31ZM258,1h16.56c1.75,0,2.63.61,2.63,1.83a1.85,1.85,0,0,1-1.4,1.9c-.78.25-1.23.41-1.36.47a1.07,1.07,0,0,0-.4.4,3.06,3.06,0,0,0-.42,1.8V42.54a3,3,0,0,0,.42,1.79,1.11,1.11,0,0,0,.4.41l1.36.47a1.85,1.85,0,0,1,1.4,1.9c0,1.22-.88,1.83-2.63,1.83H256.78a4.59,4.59,0,0,1-2.34-.48,1.56,1.56,0,0,1-.79-1.42,1.86,1.86,0,0,1,1.69-1.93l1.62-.44a1.19,1.19,0,0,0,.49-.41,3.11,3.11,0,0,0,.53-2Z"/><path class="cls-2" d="M294.61,9.88l1.79,7.28-6.22,22.71a6.52,6.52,0,0,0-.28,1.83A3.25,3.25,0,0,0,292,44.86l1.23.56a1.8,1.8,0,0,1,1.16,1.76c0,1.17-.85,1.76-2.56,1.76h-8.93a3.4,3.4,0,0,1-2.06-.55,1.75,1.75,0,0,1-.76-1.49c0-.68.52-1.24,1.55-1.69a11.53,11.53,0,0,0,2.13-1.14,6.33,6.33,0,0,0,1.32-1.39,12.6,12.6,0,0,0,1.61-3.83ZM297,1H311.2L321,42.26a14.12,14.12,0,0,0,.63,1.93A2.39,2.39,0,0,0,323,45.28a3.87,3.87,0,0,1,1.26.77,1.54,1.54,0,0,1,.35,1.06c0,1.22-.91,1.83-2.74,1.83H304.35a2.6,2.6,0,0,1-1.69-.51,1.9,1.9,0,0,1-.35-2.41,4.58,4.58,0,0,1,1.26-.88,2.49,2.49,0,0,0,1-.77,1.86,1.86,0,0,0,.28-1.06,4.64,4.64,0,0,0-.11-1.05l-1.12-5.1H293.8l.95-4.18h7.87L296.16,4.39Z"/><path class="cls-1" d="M346.68,7.1l17.68,36a4,4,0,0,0,1.72,1.79,4.29,4.29,0,0,1,1.29.91,1.84,1.84,0,0,1,.33,1.16,1.87,1.87,0,0,1-.7,1.52,4.46,4.46,0,0,1-2.54.49H348a7.34,7.34,0,0,1-2.46-.25,1.81,1.81,0,0,1-1.23-1.79,1.3,1.3,0,0,1,.24-.79,4.16,4.16,0,0,1,.92-.83c.79-.58,1.18-1.12,1.16-1.62a5.54,5.54,0,0,0-.64-1.79L328.71,7.1a5.57,5.57,0,0,0-.91-1.39,5,5,0,0,0-1.3-.93,2.34,2.34,0,0,1-1-.77,2.15,2.15,0,0,1-.26-1.16A1.55,1.55,0,0,1,326,1.37,6.05,6.05,0,0,1,328.71,1h16.38a5.38,5.38,0,0,1,2.59.46,1.55,1.55,0,0,1,.79,1.47,2.2,2.2,0,0,1-1.16,1.8,3.22,3.22,0,0,0-.72.65,1.16,1.16,0,0,0-.2.72A2.32,2.32,0,0,0,346.68,7.1ZM338,31.78l1.94,4-2.18,3.55a6.66,6.66,0,0,0-1.2,3.13,2.59,2.59,0,0,0,1.9,2.46,4.1,4.1,0,0,1,1.44.84,1.64,1.64,0,0,1,.39,1.16,1.93,1.93,0,0,1-.85,1.62,1.66,1.66,0,0,1-.7.32,11.13,11.13,0,0,1-1.48.07h-9.07a2.91,2.91,0,0,1-1.77-.48,1.51,1.51,0,0,1-.65-1.32,1.55,1.55,0,0,1,.4-1.1,3.75,3.75,0,0,1,1.43-.83,8.09,8.09,0,0,0,4.07-3.34Zm16.6-14.94-2-3.9,2-3.34a4.24,4.24,0,0,0,.66-2,2.73,2.73,0,0,0-.47-1.51A2.93,2.93,0,0,0,353.53,5l-1.23-.56a1.5,1.5,0,0,1-.61-.67,2,2,0,0,1-.27-1,1.64,1.64,0,0,1,.6-1.34A2.41,2.41,0,0,1,353.6,1h10.16a2.9,2.9,0,0,1,1.64.44,1.33,1.33,0,0,1,.65,1.14A2,2,0,0,1,365.41,4a12.06,12.06,0,0,1-1.47.88,11.24,11.24,0,0,0-4.15,4Z"/></g></g></svg>